<svg width="25" height="24" viewBox="0 0 25 24" fill="none" xmlns="http://www.w3.org/2000/svg">
<path d="M12.4823 0C9.33791 0 8.94534 0.015 7.71073 0.072C6.47805 0.132 5.6389 0.333 4.90103 0.63C4.14001 0.936 3.49377 1.347 2.85042 2.014C2.20707 2.681 1.80968 3.35 1.5155 4.14C1.22903 4.905 1.03419 5.775 0.977284 7.053C0.919411 8.333 0.907837 8.74 0.907837 12C0.907837 15.26 0.922305 15.667 0.977284 16.947C1.03516 18.224 1.22903 19.095 1.5155 19.86C1.81065 20.648 2.20707 21.319 2.85042 21.986C3.49377 22.652 4.13904 23.065 4.90103 23.37C5.63987 23.666 6.47901 23.869 7.71073 23.928C8.94534 23.988 9.33791 24 12.4823 24C15.6267 24 16.0193 23.985 17.2539 23.928C18.4856 23.868 19.3257 23.666 20.0636 23.37C20.8236 23.064 21.4708 22.652 22.1142 21.986C22.7566 21.319 23.1549 20.651 23.4491 19.86C23.7346 19.095 23.9304 18.224 23.9873 16.947C24.0452 15.667 24.0568 15.26 24.0568 12C24.0568 8.74 24.0423 8.333 23.9873 7.053C23.9295 5.776 23.7346 4.904 23.4491 4.14C23.154 3.351 22.7566 2.681 22.1142 2.014C21.4708 1.347 20.8265 0.935 20.0636 0.63C19.3257 0.333 18.4856 0.131 17.2539 0.072C16.0193 0.012 15.6267 0 12.4823 0ZM12.4823 2.16C15.5717 2.16 15.9402 2.176 17.1603 2.231C18.2888 2.286 18.9013 2.48 19.3083 2.646C19.8504 2.863 20.2343 3.123 20.6413 3.542C21.0455 3.962 21.2963 4.361 21.5056 4.923C21.6638 5.345 21.8528 5.98 21.9039 7.15C21.9589 8.416 21.9714 8.796 21.9714 12C21.9714 15.204 21.957 15.585 21.9001 16.85C21.8412 18.02 21.6531 18.655 21.494 19.077C21.2779 19.639 21.032 20.037 20.6269 20.459C20.2227 20.878 19.8321 21.138 19.2958 21.355C18.8907 21.519 18.2686 21.715 17.1401 21.768C15.9112 21.825 15.5495 21.838 12.4534 21.838C9.35623 21.838 8.99453 21.823 7.76667 21.764C6.6372 21.703 6.01507 21.508 5.60996 21.343C5.06114 21.119 4.68401 20.864 4.27987 20.444C3.87379 20.025 3.61433 19.62 3.41178 19.064C3.25263 18.644 3.06551 17.999 3.00667 16.829C2.96327 15.569 2.94784 15.18 2.94784 11.985C2.94784 8.789 2.96327 8.399 3.00667 7.124C3.06551 5.954 3.25263 5.31 3.41178 4.89C3.61433 4.32 3.87379 3.93 4.27987 3.509C4.68401 3.09 5.06114 2.82 5.60996 2.611C6.01507 2.445 6.6237 2.25 7.75221 2.19C8.98199 2.145 9.34369 2.13 12.4389 2.13L12.4823 2.16ZM12.4823 5.838C9.19805 5.838 6.53882 8.598 6.53882 12C6.53882 15.405 9.20094 18.162 12.4823 18.162C15.7666 18.162 18.4258 15.402 18.4258 12C18.4258 8.595 15.7637 5.838 12.4823 5.838ZM12.4823 16C10.3507 16 8.62415 14.21 8.62415 12C8.62415 9.79 10.3507 8 12.4823 8C14.6139 8 16.3405 9.79 16.3405 12C16.3405 14.21 14.6139 16 12.4823 16ZM20.0501 5.595C20.0501 6.39 19.427 7.035 18.6611 7.035C17.8943 7.035 17.2722 6.389 17.2722 5.595C17.2722 4.801 17.8953 4.156 18.6611 4.156C19.426 4.155 20.0501 4.801 20.0501 5.595Z" fill="black"/>
</svg>
