<svg width="24" height="20" viewBox="0 0 24 20" fill="none" xmlns="http://www.w3.org/2000/svg">
<path d="M23.3447 2.3229C22.4911 2.71189 21.5797 2.97688 20.62 3.09787C21.598 2.4869 22.3503 1.52394 22.7062 0.374984C21.789 0.929961 20.7724 1.33394 19.6902 1.55894C18.826 0.599975 17.5944 0 16.2267 0C13.6061 0 11.4814 2.20291 11.4814 4.91679C11.4814 5.30678 11.5248 5.68176 11.6039 6.04075C7.65905 5.84776 4.16274 3.88384 1.82287 0.914962C1.41103 1.63693 1.18051 2.4759 1.18051 3.38986C1.18051 5.09979 2.01962 6.60272 3.29083 7.48569C2.51248 7.45969 1.78043 7.2377 1.14193 6.86971V6.93071C1.14193 9.31561 2.77483 11.3045 4.94784 11.7575C4.54951 11.8685 4.12898 11.9285 3.69785 11.9285C3.395 11.9285 3.10469 11.8985 2.81437 11.8425C3.42297 13.7954 5.17257 15.2194 7.25492 15.2594C5.63457 16.5783 3.58115 17.3643 1.36955 17.3643C0.993398 17.3643 0.618208 17.3413 0.241089 17.2973C2.35238 18.6912 4.83982 19.5062 7.52981 19.5062C16.2624 19.5062 21.0318 12.0105 21.0318 5.52077C21.0318 5.31178 21.0318 5.10079 21.0174 4.8908C21.9442 4.20182 22.7535 3.33086 23.39 2.3429L23.3447 2.3229Z" fill="black"/>
</svg>
