<svg width="36" height="36" viewBox="0 0 36 36" fill="none" xmlns="http://www.w3.org/2000/svg">
<path d="M22.5 25.5H30L27.8925 23.3925C27.6095 23.1094 27.385 22.7734 27.2319 22.4035C27.0787 22.0337 26.9999 21.6373 27 21.237V16.5C27.0002 14.6384 26.4234 12.8225 25.3489 11.3023C24.2743 9.78215 22.755 8.63245 21 8.0115V7.5C21 6.70435 20.6839 5.94129 20.1213 5.37868C19.5587 4.81607 18.7956 4.5 18 4.5C17.2044 4.5 16.4413 4.81607 15.8787 5.37868C15.3161 5.94129 15 6.70435 15 7.5V8.0115C11.505 9.2475 9 12.582 9 16.5V21.2385C9 22.0455 8.679 22.821 8.1075 23.3925L6 25.5H13.5M22.5 25.5V27C22.5 28.1935 22.0259 29.3381 21.182 30.182C20.3381 31.0259 19.1935 31.5 18 31.5C16.8065 31.5 15.6619 31.0259 14.818 30.182C13.9741 29.3381 13.5 28.1935 13.5 27V25.5M22.5 25.5H13.5Z" fill="black"/>
<path d="M22.5 25.5H30L27.8925 23.3925C27.6095 23.1094 27.385 22.7734 27.2319 22.4035C27.0787 22.0337 26.9999 21.6373 27 21.237V16.5C27.0002 14.6384 26.4234 12.8225 25.3489 11.3023C24.2743 9.78215 22.755 8.63245 21 8.0115V7.5C21 6.70435 20.6839 5.94129 20.1213 5.37868C19.5587 4.81607 18.7956 4.5 18 4.5C17.2044 4.5 16.4413 4.81607 15.8787 5.37868C15.3161 5.94129 15 6.70435 15 7.5V8.0115C11.505 9.2475 9 12.582 9 16.5V21.2385C9 22.0455 8.679 22.821 8.1075 23.3925L6 25.5H13.5M22.5 25.5V27C22.5 28.1935 22.0259 29.3381 21.182 30.182C20.3381 31.0259 19.1935 31.5 18 31.5C16.8065 31.5 15.6619 31.0259 14.818 30.182C13.9741 29.3381 13.5 28.1935 13.5 27V25.5M22.5 25.5H13.5" stroke="black" stroke-width="2" stroke-linecap="round" stroke-linejoin="round"/>
</svg>
