<svg width="36" height="36" viewBox="0 0 36 36" fill="none" xmlns="http://www.w3.org/2000/svg">
<path d="M19.2726 4.12739C18.935 3.78994 18.4772 3.60037 18 3.60037C17.5227 3.60037 17.0649 3.78994 16.7274 4.12739L4.12735 16.7274C3.79947 17.0669 3.61804 17.5216 3.62214 17.9935C3.62624 18.4655 3.81554 18.9169 4.14928 19.2507C4.48301 19.5844 4.93447 19.7737 5.40643 19.7778C5.87838 19.7819 6.33307 19.6005 6.67255 19.2726L7.19995 18.7452V30.6C7.19995 31.0774 7.38959 31.5352 7.72716 31.8728C8.06473 32.2103 8.52256 32.4 8.99995 32.4H12.6C13.0773 32.4 13.5352 32.2103 13.8727 31.8728C14.2103 31.5352 14.4 31.0774 14.4 30.6V27C14.4 26.5226 14.5896 26.0648 14.9272 25.7272C15.2647 25.3896 15.7226 25.2 16.2 25.2H19.8C20.2773 25.2 20.7352 25.3896 21.0727 25.7272C21.4103 26.0648 21.6 26.5226 21.6 27V30.6C21.6 31.0774 21.7896 31.5352 22.1272 31.8728C22.4647 32.2103 22.9226 32.4 23.4 32.4H27C27.4773 32.4 27.9352 32.2103 28.2727 31.8728C28.6103 31.5352 28.8 31.0774 28.8 30.6V18.7452L29.3274 19.2726C29.6668 19.6005 30.1215 19.7819 30.5935 19.7778C31.0654 19.7737 31.5169 19.5844 31.8506 19.2507C32.1844 18.9169 32.3737 18.4655 32.3778 17.9935C32.3819 17.5216 32.2004 17.0669 31.8726 16.7274L19.2726 4.12739Z" fill="black" fill-opacity="0.59"/>
</svg>
